<svg xmlns="http://www.w3.org/2000/svg" width="220" height="352" viewBox="0 0 220 352">
  <path fill="none" stroke="#1833D6" stroke-width="1.5" d="M132.003271,244.990498 C134.216182,244.990498 136.011111,246.784434 136.011111,248.998355 C136.011111,251.211275 134.216182,253.006211 132.003271,253.006211 C129.789359,253.006211 127.99543,251.211275 127.99543,248.998355 C127.99543,246.784434 129.789359,244.990498 132.003271,244.990498 Z M168.009834,264.997782 C168.009834,267.210703 166.214905,269.005638 164.001994,269.005638 C161.788082,269.005638 159.994154,267.210703 159.994154,264.997782 C159.994154,262.783861 161.788082,260.989925 164.001994,260.989925 C166.214905,260.989925 168.009834,262.783861 168.009834,264.997782 Z M43.0148212,280.997209 C43.0148212,283.21013 41.2198928,285.005066 39.0069811,285.005066 C36.7930694,285.005066 34.999141,283.21013 34.999141,280.997209 C34.999141,278.783288 36.7930694,276.989353 39.0069811,276.989353 C41.2198928,276.989353 43.0148212,278.783288 43.0148212,280.997209 Z M164.001994,145.994041 C166.214905,145.994041 168.009834,147.787977 168.009834,150.001898 C168.009834,152.214819 166.214905,154.009755 164.001994,154.009755 C161.788082,154.009755 159.994154,152.214819 159.994154,150.001898 C159.994154,147.787977 161.788082,145.994041 164.001994,145.994041 Z M124.00359,189.992467 C126.216501,189.992467 128.01143,191.786402 128.01143,194.000323 C128.01143,196.213244 126.216501,198.00818 124.00359,198.00818 C121.789678,198.00818 119.99575,196.213244 119.99575,194.000323 C119.99575,191.786402 121.789678,189.992467 124.00359,189.992467 Z M-8.99110377,252.990212 C-6.77819207,252.990212 -4.98326369,254.784147 -4.98326369,256.998068 C-4.98326369,259.210989 -6.77819207,261.005925 -8.99110377,261.005925 C-11.2050154,261.005925 -12.9989439,259.210989 -12.9989439,256.998068 C-12.9989439,254.784147 -11.2050154,252.990212 -8.99110377,252.990212 Z M87.005066,276.989453 C89.2179777,276.989453 91.012906,278.783388 91.012906,280.997309 C91.012906,283.21023 89.2179777,285.005166 87.005066,285.005166 C84.7911543,285.005166 82.9972259,283.21023 82.9972259,280.997309 C82.9972259,278.783388 84.7911543,276.989453 87.005066,276.989453 Z M97.004667,66.9968691 C99.2175787,66.9968691 101.012507,68.7908049 101.012507,71.0047257 C101.012507,73.2176465 99.2175787,75.0125822 97.004667,75.0125822 C94.7907553,75.0125822 92.9968269,73.2176465 92.9968269,71.0047257 C92.9968269,68.7908049 94.7907553,66.9968691 97.004667,66.9968691 Z M-0.991422964,153.993755 C1.22148874,153.993755 3.01641712,155.787691 3.01641712,158.001612 C3.01641712,160.214532 1.22148874,162.009468 -0.991422964,162.009468 C-3.20533463,162.009468 -4.99926305,160.214532 -4.99926305,158.001612 C-4.99926305,155.787691 -3.20533463,153.993755 -0.991422964,153.993755 Z M47.0066619,106.995537 C49.2195736,106.995537 51.014502,108.789473 51.014502,111.003394 C51.014502,113.216315 49.2195736,115.01125 47.0066619,115.01125 C44.7927502,115.01125 42.9988218,113.216315 42.9988218,111.003394 C42.9988218,108.789473 44.7927502,106.995537 47.0066619,106.995537 Z M203.000438,199.992109 C205.213349,199.992109 207.008278,201.786044 207.008278,203.999965 C207.008278,206.212886 205.213349,208.007822 203.000438,208.007822 C200.786526,208.007822 198.992598,206.212886 198.992598,203.999965 C198.992598,201.786044 200.786526,199.992109 203.000438,199.992109 Z M-60.989029,193.992423 C-58.7751174,193.992423 -56.981189,195.786359 -56.981189,198.00028 C-56.981189,200.213201 -58.7751174,202.008137 -60.989029,202.008137 C-63.2019407,202.008137 -64.9968691,200.213201 -64.9968691,198.00028 C-64.9968691,195.786359 -63.2019407,193.992423 -60.989029,193.992423 Z M116.003909,115.495333 C118.217821,115.495333 120.011749,117.289269 120.011749,119.50319 C120.011749,121.71611 118.217821,123.510046 116.003909,123.510046 C113.790997,123.510046 111.996069,121.71611 111.996069,119.50319 C111.996069,117.289269 113.790997,115.495333 116.003909,115.495333 Z M220.99972,261.005925 C218.785808,261.005925 216.991879,259.211989 216.991879,256.998068 C216.991879,254.785147 218.785808,252.990212 220.99972,252.990212 C223.212631,252.990212 225.00756,254.785147 225.00756,256.998068 C225.00756,259.211989 223.212631,261.005925 220.99972,261.005925 Z M280.997326,236.990784 C283.211237,236.990784 285.005166,238.78472 285.005166,240.998641 C285.005166,243.211562 283.211237,245.006497 280.997326,245.006497 C278.783414,245.006497 276.989486,243.211562 276.989486,240.998641 C276.989486,238.78472 278.783414,236.990784 280.997326,236.990784 Z M156.002313,66.9968691 C158.215225,66.9968691 160.010153,68.7908049 160.010153,71.0037257 C160.010153,73.2176465 158.215225,75.0115823 156.002313,75.0115823 C153.788401,75.0115823 151.994473,73.2176465 151.994473,71.0037257 C151.994473,68.7908049 153.788401,66.9968691 156.002313,66.9968691 Z M87.005066,199.992109 C89.2189776,199.992109 91.012906,201.786044 91.012906,203.999965 C91.012906,206.212886 89.2189776,208.007822 87.005066,208.007822 C84.7921543,208.007822 82.9972259,206.212886 82.9972259,203.999965 C82.9972259,201.786044 84.7921543,199.992109 87.005066,199.992109 Z M43.0068215,207.991822 C45.2197332,207.991822 47.0146616,209.785758 47.0146616,211.999679 C47.0146616,214.2126 45.2197332,216.007535 43.0068215,216.007535 C40.7929098,216.007535 38.9989814,214.2126 38.9989814,211.999679 C38.9989814,209.785758 40.7929098,207.991822 43.0068215,207.991822 Z" opacity=".517" transform="rotate(-90 110.004 176.001)"/>
</svg>
