<?xml version="1.0" encoding="utf-8"?>
<!-- Generator: Adobe Illustrator 21.1.0, SVG Export Plug-In . SVG Version: 6.00 Build 0)  -->
<svg version="1.1" id="Layer_1" xmlns="http://www.w3.org/2000/svg" xmlns:xlink="http://www.w3.org/1999/xlink" x="0px" y="0px"
	 viewBox="0 0 135 355" style="enable-background:new 0 0 135 355;" xml:space="preserve">
<style type="text/css">
	.st0{opacity:0.711;fill:none;stroke:#D3E4F4;stroke-width:1.5;enable-background:new    ;}
</style>
<path class="st0" d="M-7,205c0-2.2,1.8-4,4-4c2.2,0,4,1.8,4,4c0,2.2-1.8,4-4,4C-5.2,209-7,207.2-7,205z M49,142c0-2.2,1.8-4,4-4
	c2.2,0,4,1.8,4,4s-1.8,4-4,4C50.8,146,49,144.2,49,142z M13,169c2.2,0,4,1.8,4,4c0,2.2-1.8,4-4,4c-2.2,0-4-1.8-4-4
	C9,170.8,10.8,169,13,169z M122,155c2.2,0,4,1.8,4,4c0,2.2-1.8,4-4,4c-2.2,0-4-1.8-4-4C118,156.8,119.8,155,122,155z M84,205
	c2.2,0,4,1.8,4,4c0,2.2-1.8,4-4,4c-2.2,0-4-1.8-4-4C80,206.8,81.8,205,84,205z M29,294c2.2,0,4,1.8,4,4c0,2.2-1.8,4-4,4
	c-2.2,0-4-1.8-4-4C25,295.8,26.8,294,29,294z M-106,173c0-2.2,1.8-4,4-4c2.2,0,4,1.8,4,4c0,2.2-1.8,4-4,4
	C-104.2,177-106,175.2-106,173z M-62,213c0-2.2,1.8-4,4-4c2.2,0,4,1.8,4,4c0,2.2-1.8,4-4,4C-60.2,217-62,215.2-62,213z M-239,151
	c0-2.2,1.8-4,4-4c2.2,0,4,1.8,4,4c0,2.2-1.8,4-4,4C-237.2,155-239,153.2-239,151z M1,346c0-2.2,1.8-4,4-4c2.2,0,4,1.8,4,4
	c0,2.2-1.8,4-4,4C2.8,350,1,348.2,1,346z M94,294c0-2.2,1.8-4,4-4c2.2,0,4,1.8,4,4c0,2.2-1.8,4-4,4C95.8,298,94,296.2,94,294z
	 M73,350c0-2.2,1.8-4,4-4c2.2,0,4,1.8,4,4c0,2.2-1.8,4-4,4C74.8,354,73,352.2,73,350z M69,258c0-2.2,1.8-4,4-4c2.2,0,4,1.8,4,4
	c0,2.2-1.8,4-4,4C70.8,262,69,260.2,69,258z M25,250c0-2.2,1.8-4,4-4c2.2,0,4,1.8,4,4c0,2.2-1.8,4-4,4C26.8,254,25,252.2,25,250z
	 M-185,240c0-2.2,1.8-4,4-4c2.2,0,4,1.8,4,4c0,2.2-1.8,4-4,4C-183.2,244-185,242.2-185,240z M126,236c0-2.2,1.8-4,4-4
	c2.2,0,4,1.8,4,4c0,2.2-1.8,4-4,4C127.8,240,126,238.2,126,236z M-98,338c0-2.2,1.8-4,4-4c2.2,0,4,1.8,4,4c0,2.2-1.8,4-4,4
	C-96.2,342-98,340.2-98,338z M-145,290c0-2.2,1.8-4,4-4c2.2,0,4,1.8,4,4c0,2.2-1.8,4-4,4C-143.2,294-145,292.2-145,290z M-52,134
	c0-2.2,1.8-4,4-4c2.2,0,4,1.8,4,4c0,2.2-1.8,4-4,4C-50.2,138-52,136.2-52,134z M65,173c0-2.2,1.8-4,4-4c2.2,0,4,1.8,4,4
	c0,2.2-1.8,4-4,4C66.8,177,65,175.2,65,173z M126,94c0-2.2,1.8-4,4-4c2.2,0,4,1.8,4,4c0,2.2-1.8,4-4,4C127.8,98,126,96.2,126,94z
	 M-58,398c0-2.2,1.8-4,4-4c2.2,0,4,1.8,4,4c0,2.2-1.8,4-4,4C-56.2,402-58,400.2-58,398z M-136.5,221c0-2.2,1.8-4,4-4
	c2.2,0,4,1.8,4,4c0,2.2-1.8,4-4,4C-134.7,225-136.5,223.2-136.5,221z M-185,59c0-2.2,1.8-4,4-4c2.2,0,4,1.8,4,4c0,2.2-1.8,4-4,4
	C-183.2,63-185,61.2-185,59z M9,116c0,2.2-1.8,4-4,4c-2.2,0-4-1.8-4-4c0-2.2,1.8-4,4-4C7.2,112,9,113.8,9,116z M-15,56
	c0-2.2,1.8-4,4-4c2.2,0,4,1.8,4,4c0,2.2-1.8,4-4,4C-13.2,60-15,58.2-15,56z M88,108c0-2.2,1.8-4,4-4c2.2,0,4,1.8,4,4
	c0,2.2-1.8,4-4,4C89.8,112,88,110.2,88,108z M-185,181c0-2.2,1.8-4,4-4c2.2,0,4,1.8,4,4c0,2.2-1.8,4-4,4
	C-183.2,185-185,183.2-185,181z M-52,250c0-2.2,1.8-4,4-4c2.2,0,4,1.8,4,4c0,2.2-1.8,4-4,4C-50.2,254-52,252.2-52,250z M-44,294
	c0-2.2,1.8-4,4-4c2.2,0,4,1.8,4,4c0,2.2-1.8,4-4,4C-42.2,298-44,296.2-44,294z M-313,169c0-2.2,1.8-4,4-4c2.2,0,4,1.8,4,4
	c0,2.2-1.8,4-4,4C-311.2,173-313,171.2-313,169z M57,5c0-2.2,1.8-4,4-4c2.2,0,4,1.8,4,4c0,2.2-1.8,4-4,4C58.8,9,57,7.2,57,5z M98,60
	c0-2.2,1.8-4,4-4c2.2,0,4,1.8,4,4s-1.8,4-4,4C99.8,64,98,62.2,98,60z M-139,104c0-2.2,1.8-4,4-4c2.2,0,4,1.8,4,4c0,2.2-1.8,4-4,4
	C-137.2,108-139,106.2-139,104z"/>
</svg>
